<svg width="40" height="40" viewBox="0 0 40 40" fill="none" xmlns="http://www.w3.org/2000/svg">
<g clip-path="url(#clip0_8_32)">
<path d="M38.3333 36.6667H8.33333C7.00725 36.6667 5.73548 36.1399 4.7978 35.2022C3.86012 34.2645 3.33333 32.9927 3.33333 31.6667V1.66667C3.33333 1.22464 3.15774 0.800716 2.84518 0.488155C2.53262 0.175595 2.10869 0 1.66667 0C1.22464 0 0.800716 0.175595 0.488155 0.488155C0.175595 0.800716 0 1.22464 0 1.66667L0 31.6667C0.00264643 33.876 0.88147 35.9941 2.4437 37.5563C4.00593 39.1185 6.12401 39.9974 8.33333 40H38.3333C38.7754 40 39.1993 39.8244 39.5118 39.5118C39.8244 39.1993 40 38.7754 40 38.3333C40 37.8913 39.8244 37.4674 39.5118 37.1548C39.1993 36.8423 38.7754 36.6667 38.3333 36.6667Z" fill="#2B2A29"/>
<path d="M9.99992 33.3333C10.4419 33.3333 10.8659 33.1577 11.1784 32.8451C11.491 32.5325 11.6666 32.1086 11.6666 31.6666V19.9999C11.6666 19.5579 11.491 19.134 11.1784 18.8214C10.8659 18.5088 10.4419 18.3333 9.99992 18.3333C9.55789 18.3333 9.13397 18.5088 8.82141 18.8214C8.50885 19.134 8.33325 19.5579 8.33325 19.9999V31.6666C8.33325 32.1086 8.50885 32.5325 8.82141 32.8451C9.13397 33.1577 9.55789 33.3333 9.99992 33.3333Z" fill="#2B2A29"/>
<path d="M16.6667 16.6667V31.6667C16.6667 32.1087 16.8423 32.5326 17.1549 32.8452C17.4675 33.1577 17.8914 33.3333 18.3334 33.3333C18.7754 33.3333 19.1994 33.1577 19.5119 32.8452C19.8245 32.5326 20.0001 32.1087 20.0001 31.6667V16.6667C20.0001 16.2246 19.8245 15.8007 19.5119 15.4882C19.1994 15.1756 18.7754 15 18.3334 15C17.8914 15 17.4675 15.1756 17.1549 15.4882C16.8423 15.8007 16.6667 16.2246 16.6667 16.6667Z" fill="#2B2A29"/>
<path d="M25 21.6667V31.6667C25 32.1087 25.1756 32.5326 25.4882 32.8452C25.8007 33.1577 26.2246 33.3333 26.6667 33.3333C27.1087 33.3333 27.5326 33.1577 27.8452 32.8452C28.1577 32.5326 28.3333 32.1087 28.3333 31.6667V21.6667C28.3333 21.2246 28.1577 20.8007 27.8452 20.4882C27.5326 20.1756 27.1087 20 26.6667 20C26.2246 20 25.8007 20.1756 25.4882 20.4882C25.1756 20.8007 25 21.2246 25 21.6667Z" fill="#2B2A29"/>
<path d="M33.3333 14.9999V31.6666C33.3333 32.1086 33.5088 32.5325 33.8214 32.8451C34.134 33.1577 34.5579 33.3333 34.9999 33.3333C35.4419 33.3333 35.8659 33.1577 36.1784 32.8451C36.491 32.5325 36.6666 32.1086 36.6666 31.6666V14.9999C36.6666 14.5579 36.491 14.134 36.1784 13.8214C35.8659 13.5088 35.4419 13.3333 34.9999 13.3333C34.5579 13.3333 34.134 13.5088 33.8214 13.8214C33.5088 14.134 33.3333 14.5579 33.3333 14.9999Z" fill="#2B2A29"/>
<path d="M10.0001 15C10.442 14.9999 10.8659 14.8243 11.1784 14.5117L17.1551 8.53503C17.4727 8.2324 17.8946 8.0636 18.3334 8.0636C18.7721 8.0636 19.194 8.2324 19.5117 8.53503L23.1317 12.155C24.0694 13.0924 25.3409 13.619 26.6667 13.619C27.9925 13.619 29.2641 13.0924 30.2017 12.155L39.5117 2.84503C39.8153 2.53069 39.9833 2.10969 39.9795 1.67269C39.9757 1.2357 39.8004 0.817677 39.4914 0.508663C39.1824 0.19965 38.7644 0.0243682 38.3274 0.0205708C37.8904 0.0167735 37.4694 0.184764 37.155 0.488361L27.8451 9.79669C27.5325 10.1091 27.1087 10.2847 26.6667 10.2847C26.2248 10.2847 25.8009 10.1091 25.4884 9.79669L21.8684 6.17836C20.9307 5.24101 19.6592 4.71443 18.3334 4.71443C17.0076 4.71443 15.736 5.24101 14.7984 6.17836L8.82172 12.155C8.5887 12.3881 8.43003 12.6851 8.36575 13.0083C8.30147 13.3316 8.33447 13.6666 8.46059 13.9711C8.58671 14.2756 8.80027 14.5359 9.07429 14.719C9.3483 14.9022 9.67047 15 10.0001 15Z" fill="#2B2A29"/>
</g>
<defs>
<clipPath id="clip0_8_32">
<rect width="40" height="40" fill="white"/>
</clipPath>
</defs>
</svg>
