<svg width="40" height="40" viewBox="0 0 40 40" fill="none" xmlns="http://www.w3.org/2000/svg">
<path d="M20.0003 33.3334C23.5365 33.3334 26.9279 31.9287 29.4284 29.4282C31.9289 26.9277 33.3337 23.5363 33.3337 20.0001C33.3337 16.4639 31.9289 13.0725 29.4284 10.572C26.9279 8.07151 23.5365 6.66675 20.0003 6.66675C16.4641 6.66675 13.0727 8.07151 10.5722 10.572C8.07175 13.0725 6.66699 16.4639 6.66699 20.0001C6.66699 23.5363 8.07175 26.9277 10.5722 29.4282C13.0727 31.9287 16.4641 33.3334 20.0003 33.3334Z" stroke="#2B2A29" stroke-width="3" stroke-linecap="round" stroke-linejoin="round"/>
<path d="M20.0003 23.3334C20.8844 23.3334 21.7322 22.9822 22.3573 22.3571C22.9825 21.732 23.3337 20.8841 23.3337 20.0001C23.3337 19.116 22.9825 18.2682 22.3573 17.6431C21.7322 17.0179 20.8844 16.6667 20.0003 16.6667C19.1163 16.6667 18.2684 17.0179 17.6433 17.6431C17.0182 18.2682 16.667 19.116 16.667 20.0001C16.667 20.8841 17.0182 21.732 17.6433 22.3571C18.2684 22.9822 19.1163 23.3334 20.0003 23.3334Z" stroke="#2B2A29" stroke-width="3" stroke-linecap="round" stroke-linejoin="round"/>
<path d="M20 3.33325V6.66659" stroke="#2B2A29" stroke-width="3" stroke-linecap="round" stroke-linejoin="round"/>
<path d="M20 36.6666V33.3333" stroke="#2B2A29" stroke-width="3" stroke-linecap="round" stroke-linejoin="round"/>
<path d="M28.3337 34.4334L26.667 31.55" stroke="#2B2A29" stroke-width="3" stroke-linecap="round" stroke-linejoin="round"/>
<path d="M18.3337 17.1167L11.667 5.56665" stroke="#2B2A29" stroke-width="3" stroke-linecap="round" stroke-linejoin="round"/>
<path d="M34.4331 28.3334L31.5498 26.6667" stroke="#2B2A29" stroke-width="3" stroke-linecap="round" stroke-linejoin="round"/>
<path d="M5.56641 11.6667L8.44974 13.3334" stroke="#2B2A29" stroke-width="3" stroke-linecap="round" stroke-linejoin="round"/>
<path d="M23.333 20H36.6663" stroke="#2B2A29" stroke-width="3" stroke-linecap="round" stroke-linejoin="round"/>
<path d="M3.33301 20H6.66634" stroke="#2B2A29" stroke-width="3" stroke-linecap="round" stroke-linejoin="round"/>
<path d="M34.4331 11.6667L31.5498 13.3334" stroke="#2B2A29" stroke-width="3" stroke-linecap="round" stroke-linejoin="round"/>
<path d="M5.56641 28.3334L8.44974 26.6667" stroke="#2B2A29" stroke-width="3" stroke-linecap="round" stroke-linejoin="round"/>
<path d="M28.3337 5.56665L26.667 8.44998" stroke="#2B2A29" stroke-width="3" stroke-linecap="round" stroke-linejoin="round"/>
<path d="M18.3337 22.8833L11.667 34.4333" stroke="#2B2A29" stroke-width="3" stroke-linecap="round" stroke-linejoin="round"/>
</svg>
