<svg width="217" height="48" viewBox="0 0 217 48" fill="none" xmlns="http://www.w3.org/2000/svg">
<path d="M194.503 16.8823H197.841V37.8597H194.503V16.8823ZM187.415 27.371C187.415 25.8666 187.765 24.5423 188.464 23.398C189.185 22.2538 190.202 21.3639 191.516 20.7282C192.829 20.0713 194.376 19.7429 196.156 19.7429C197.957 19.7429 199.515 20.0713 200.828 20.7282C202.142 21.3639 203.149 22.2538 203.848 23.398C204.569 24.5423 204.929 25.8666 204.929 27.371C204.929 28.8543 204.569 30.1786 203.848 31.344C203.149 32.4882 202.142 33.3888 200.828 34.0457C199.515 34.6813 197.957 34.9992 196.156 34.9992C194.376 34.9992 192.829 34.6813 191.516 34.0457C190.202 33.3888 189.185 32.4882 188.464 31.344C187.765 30.1786 187.415 28.8543 187.415 27.371ZM190.689 27.371C190.689 28.2822 190.89 29.0874 191.293 29.7866C191.717 30.4647 192.331 31.005 193.137 31.4076C193.963 31.789 194.969 31.9797 196.156 31.9797C197.343 31.9797 198.339 31.789 199.144 31.4076C199.97 31.005 200.585 30.4647 200.987 29.7866C201.411 29.0874 201.623 28.2822 201.623 27.371C201.623 26.4599 201.411 25.6547 200.987 24.9554C200.585 24.2562 199.97 23.7159 199.144 23.3345C198.339 22.9531 197.343 22.7624 196.156 22.7624C194.969 22.7624 193.963 22.9531 193.137 23.3345C192.331 23.7159 191.717 24.2562 191.293 24.9554C190.89 25.6547 190.689 26.4599 190.689 27.371Z" fill="#2B2A29"/>
<path d="M173.307 41.6737H169.842V20.0606H173.307V41.6737ZM185.417 27.3709C185.417 28.9813 185.088 30.3692 184.432 31.5346C183.775 32.6788 182.906 33.5582 181.825 34.1727C180.744 34.766 179.568 35.0626 178.297 35.0626C177.047 35.0626 175.956 34.7554 175.023 34.1409C174.112 33.5052 173.402 32.6153 172.894 31.471C172.406 30.3056 172.163 28.9389 172.163 27.3709C172.163 25.7817 172.406 24.415 172.894 23.2708C173.402 22.1266 174.112 21.2472 175.023 20.6327C175.956 19.997 177.047 19.6792 178.297 19.6792C179.568 19.6792 180.744 19.9864 181.825 20.6009C182.906 21.1942 183.775 22.063 184.432 23.2072C185.088 24.3514 185.417 25.7393 185.417 27.3709ZM181.857 27.3709C181.857 26.3962 181.656 25.5698 181.253 24.8918C180.85 24.1925 180.31 23.6734 179.632 23.3344C178.975 22.9741 178.244 22.794 177.439 22.794C176.782 22.794 176.136 22.9741 175.5 23.3344C174.864 23.6734 174.335 24.1819 173.911 24.86C173.508 25.538 173.307 26.375 173.307 27.3709C173.307 28.3668 173.508 29.2038 173.911 29.8819C174.335 30.5599 174.864 31.079 175.5 31.4393C176.136 31.7783 176.782 31.9478 177.439 31.9478C178.244 31.9478 178.975 31.7783 179.632 31.4393C180.31 31.079 180.85 30.5599 181.253 29.8819C181.656 29.1826 181.857 28.3456 181.857 27.3709Z" fill="#2B2A29"/>
<path d="M160.797 33.0603C160.797 32.4458 161.009 31.9267 161.432 31.5029C161.877 31.0579 162.407 30.8354 163.022 30.8354C163.678 30.8354 164.219 31.0579 164.643 31.5029C165.066 31.9267 165.278 32.4458 165.278 33.0603C165.278 33.6536 165.066 34.1728 164.643 34.6177C164.219 35.0627 163.678 35.2852 163.022 35.2852C162.407 35.2852 161.877 35.0627 161.432 34.6177C161.009 34.1728 160.797 33.6536 160.797 33.0603Z" fill="#2B2A29"/>
<path d="M146.682 41.6737H143.218V20.0606H146.682V41.6737ZM158.792 27.3709C158.792 28.9813 158.464 30.3692 157.807 31.5346C157.15 32.6788 156.281 33.5582 155.201 34.1727C154.12 34.766 152.944 35.0626 151.673 35.0626C150.422 35.0626 149.331 34.7554 148.399 34.1409C147.488 33.5052 146.778 32.6153 146.269 31.471C145.782 30.3056 145.538 28.9389 145.538 27.3709C145.538 25.7817 145.782 24.415 146.269 23.2708C146.778 22.1266 147.488 21.2472 148.399 20.6327C149.331 19.997 150.422 19.6792 151.673 19.6792C152.944 19.6792 154.12 19.9864 155.201 20.6009C156.281 21.1942 157.15 22.063 157.807 23.2072C158.464 24.3514 158.792 25.7393 158.792 27.3709ZM155.232 27.3709C155.232 26.3962 155.031 25.5698 154.629 24.8918C154.226 24.1925 153.686 23.6734 153.007 23.3344C152.351 22.9741 151.62 22.794 150.814 22.794C150.157 22.794 149.511 22.9741 148.875 23.3344C148.24 23.6734 147.71 24.1819 147.286 24.86C146.884 25.538 146.682 26.375 146.682 27.3709C146.682 28.3668 146.884 29.2038 147.286 29.8819C147.71 30.5599 148.24 31.079 148.875 31.4393C149.511 31.7783 150.157 31.9478 150.814 31.9478C151.62 31.9478 152.351 31.7783 153.007 31.4393C153.686 31.079 154.226 30.5599 154.629 29.8819C155.031 29.1826 155.232 28.3456 155.232 27.3709Z" fill="#2B2A29"/>
<path d="M127.292 28.1659V25.8139H136.477C136.393 25.1147 136.202 24.5108 135.905 24.0022C135.63 23.4725 135.238 23.0699 134.729 22.7944C134.221 22.4978 133.596 22.3494 132.854 22.3494C132.091 22.3494 131.402 22.519 130.788 22.858C130.173 23.1758 129.686 23.6526 129.326 24.2883C128.966 24.9028 128.785 25.6338 128.785 26.4814L128.722 27.3713C128.722 28.452 128.891 29.3525 129.23 30.0729C129.591 30.7722 130.078 31.3019 130.693 31.6621C131.328 32.0012 132.059 32.1707 132.886 32.1707C133.564 32.1707 134.157 32.0753 134.666 31.8846C135.195 31.6939 135.662 31.4291 136.064 31.09C136.467 30.7298 136.806 30.3166 137.081 29.8505L140.037 31.0583C139.55 31.8423 138.988 32.5309 138.353 33.1242C137.738 33.7175 136.975 34.1837 136.064 34.5227C135.174 34.8405 134.062 34.9995 132.727 34.9995C131.222 34.9995 129.909 34.671 128.785 34.0142C127.662 33.3573 126.794 32.4567 126.179 31.3125C125.565 30.1471 125.257 28.8334 125.257 27.3713C125.257 27.0959 125.268 26.831 125.289 26.5767C125.31 26.3224 125.342 26.0682 125.384 25.8139C125.596 24.6061 126.02 23.5466 126.656 22.6355C127.313 21.7244 128.171 21.0145 129.23 20.506C130.29 19.9974 131.508 19.7432 132.886 19.7432C134.39 19.7432 135.683 20.0504 136.763 20.6649C137.865 21.2582 138.713 22.1164 139.306 23.2394C139.9 24.3412 140.196 25.6656 140.196 27.2124C140.196 27.3395 140.196 27.4879 140.196 27.6574C140.196 27.8057 140.175 27.9752 140.133 28.1659H127.292Z" fill="#2B2A29"/>
<path d="M116.289 20.0605H124.68V23.08H119.69V34.6812H116.289V20.0605Z" fill="#2B2A29"/>
<path d="M99.2214 28.3879V25.5592H110.41V28.3879H99.2214ZM108.566 20.0605H111.935V34.6812H108.566V20.0605ZM97.7275 20.0605H101.097V34.6812H97.7275V20.0605Z" fill="#2B2A29"/>
<path d="M83.8759 30.3586C83.8759 30.8035 83.9925 31.1744 84.2256 31.471C84.4798 31.7677 84.8083 32.0007 85.2109 32.1702C85.6135 32.3186 86.0691 32.3927 86.5776 32.3927C87.3193 32.3927 87.9868 32.2762 88.5801 32.0431C89.1734 31.81 89.6396 31.4392 89.9786 30.9307C90.3176 30.4221 90.4872 29.7441 90.4872 28.8965L90.9957 30.5493C90.9957 31.4816 90.752 32.2868 90.2647 32.9648C89.7773 33.6217 89.1204 34.1303 88.294 34.4905C87.4676 34.8295 86.5458 34.999 85.5287 34.999C84.5752 34.999 83.7064 34.8295 82.9224 34.4905C82.1595 34.1514 81.545 33.6535 81.0789 32.9966C80.6339 32.3186 80.4114 31.4816 80.4114 30.4857C80.4114 29.4898 80.6657 28.6316 81.1742 27.9112C81.6828 27.1908 82.4032 26.6398 83.3356 26.2584C84.2891 25.877 85.4016 25.6863 86.673 25.6863C87.5206 25.6863 88.2728 25.7923 88.9297 26.0042C89.6078 26.2161 90.1693 26.4597 90.6143 26.7352C91.0593 27.0107 91.3665 27.2543 91.5361 27.4662V29.2779C90.8792 28.7906 90.2117 28.4409 89.5336 28.229C88.8555 27.996 88.0715 27.8794 87.1815 27.8794C86.4611 27.8794 85.8466 27.9854 85.338 28.1973C84.8507 28.388 84.4798 28.674 84.2256 29.0554C83.9925 29.4156 83.8759 29.85 83.8759 30.3586ZM83.1131 23.9064L81.7463 21.4591C82.4032 21.0565 83.2402 20.6645 84.2573 20.283C85.2745 19.9016 86.4399 19.7109 87.7537 19.7109C88.9615 19.7109 90.021 19.891 90.9322 20.2513C91.8433 20.6115 92.5532 21.1306 93.0617 21.8087C93.5915 22.4655 93.8564 23.2813 93.8564 24.256V34.6812H90.4872V24.6375C90.4872 23.9594 90.2011 23.4403 89.629 23.08C89.078 22.6986 88.4 22.5079 87.5947 22.5079C86.8955 22.5079 86.2492 22.5927 85.6559 22.7622C85.0626 22.9317 84.5434 23.133 84.0984 23.3661C83.6746 23.578 83.3462 23.7581 83.1131 23.9064Z" fill="#2B2A29"/>
<path d="M65.9617 23.2074V21.3639H69.5534C70.2527 21.3639 70.8672 21.2474 71.3969 21.0143C71.9267 20.7812 72.3399 20.4528 72.6365 20.029C72.9332 19.584 73.0815 19.0543 73.0815 18.4398C73.0815 17.5075 72.7531 16.787 72.0962 16.2785C71.4393 15.7699 70.5917 15.5157 69.5534 15.5157H66.8517V31.5983H69.9666C70.8142 31.5983 71.5664 31.4606 72.2233 31.1852C72.8802 30.9097 73.3994 30.4965 73.7808 29.9456C74.1622 29.3947 74.3529 28.706 74.3529 27.8796C74.3529 27.2863 74.2364 26.7672 74.0033 26.3222C73.7914 25.856 73.4841 25.4746 73.0815 25.178C72.7001 24.8601 72.2445 24.6377 71.7148 24.5105C71.185 24.3622 70.6023 24.288 69.9666 24.288H65.9617V22.2221H70.1891C71.2698 22.2221 72.2869 22.3386 73.2404 22.5717C74.194 22.8048 75.0416 23.165 75.7832 23.6524C76.5461 24.1397 77.1394 24.7648 77.5632 25.5276C77.987 26.2904 78.1989 27.2016 78.1989 28.261C78.1989 29.7231 77.8492 30.9309 77.15 31.8844C76.4719 32.8379 75.5289 33.5478 74.3211 34.0139C73.1345 34.4589 71.7571 34.6814 70.1891 34.6814H63.1011V12.4326H69.8077C71.2062 12.4326 72.4352 12.6339 73.4947 13.0365C74.5754 13.4391 75.4124 14.0536 76.0057 14.88C76.6202 15.7064 76.9275 16.7552 76.9275 18.0266C76.9275 19.1284 76.6202 20.0714 76.0057 20.8554C75.4124 21.6182 74.5754 22.2009 73.4947 22.6035C72.4352 23.0061 71.2062 23.2074 69.8077 23.2074H65.9617Z" fill="#2B2A29"/>
<mask id="mask0_146_6000" style="mask-type:alpha" maskUnits="userSpaceOnUse" x="0" y="0" width="48" height="48">
<path d="M48 24C48 26.544 47.808 29.088 47.376 31.536C46.08 39.648 39.648 46.08 31.536 47.376C29.088 47.808 26.544 48 24 48C21.456 48 18.912 47.808 16.464 47.376C8.352 46.08 1.92 39.648 0.624 31.536C0.192 29.088 0 26.544 0 24C0 21.456 0.192 18.912 0.624 16.464C1.92 8.352 8.352 1.92 16.464 0.624C18.912 0.192 21.456 0 24 0C26.544 0 29.088 0.192 31.536 0.624C39.648 1.92 46.08 8.352 47.376 16.464C47.808 18.912 48 21.456 48 24Z" fill="#FDD947"/>
</mask>
<g mask="url(#mask0_146_6000)">
<path d="M48 24C48 26.544 47.808 29.088 47.376 31.536C46.08 39.648 39.648 46.08 31.536 47.376C29.088 47.808 26.544 48 24 48C21.456 48 18.912 47.808 16.464 47.376C8.352 46.08 1.92 39.648 0.624 31.536C0.192 29.088 0 26.544 0 24C0 21.456 0.192 18.912 0.624 16.464C1.92 8.352 8.352 1.92 16.464 0.624C18.912 0.192 21.456 0 24 0C26.544 0 29.088 0.192 31.536 0.624C39.648 1.92 46.08 8.352 47.376 16.464C47.808 18.912 48 21.456 48 24Z" fill="#FDD947"/>
<path fill-rule="evenodd" clip-rule="evenodd" d="M13.1366 28.0703C17.2303 28.0703 16.1315 35.9211 13.1366 40.029C10.1417 44.1368 7.76287 48.2486 7.76287 48.2486H39.9446C39.9446 48.2486 38.609 43.2952 34.808 40.029C31.0071 36.7627 31.6723 34.6049 31.6723 34.6049C36.1918 35.1031 40.1769 33.8854 41.7348 32.8361C41.5376 31.5444 39.2221 29.7689 36.8622 27.9594C34.2936 25.9898 31.6723 23.9798 31.6723 22.5092C31.6723 20.1351 33.5627 19.3369 35.3519 18.5813C37.0026 17.8843 38.5673 17.2235 38.4821 15.3951C38.3552 12.6667 34.7167 12.1772 33.5238 14.0333C33.2142 14.5148 32.9541 15.002 32.6685 15.537L32.6678 15.5382C32.5761 15.71 32.4818 15.8866 32.3823 16.0696C29.4531 21.4614 24.2429 18.9045 28.576 13.0579C30.8527 9.98579 27.3096 7.52608 25.1171 9.0623C23.7855 9.99509 23.9443 11.5689 24.1241 13.3505C24.1896 13.9997 24.2579 14.6763 24.2579 15.3597C24.2579 17.8336 20.5295 18.0661 19.7335 15.6474C19.5007 14.9398 19.4687 14.1269 19.4373 13.3297C19.3606 11.3852 19.2877 9.53429 16.314 9.53429C14.4678 9.53429 13.9307 11.6492 13.9307 11.6525C13.9307 13.0551 14.9357 13.966 15.9346 14.8713C16.9216 15.7658 17.9026 16.6549 17.9026 18.0077C17.9026 20.7204 13.7757 19.5633 12.3341 17.486C8.111 11.4014 6.25153 16.5829 6.25153 17.2136C6.25153 19.5225 8.23905 19.8678 10.228 20.2134C11.18 20.3788 12.1322 20.5443 12.8671 20.9251C14.2981 21.6669 14.7251 22.1008 14.7251 23.304C14.7251 25.828 12.2808 25.2031 9.71171 24.5464C6.86642 23.819 3.86816 23.0526 3.86816 26.4814C3.86816 29.5846 7.21784 28.9024 9.75407 28.3858L9.75417 28.3858C10.571 28.2194 11.3034 28.0703 11.8124 28.0703H13.1366ZM25.0402 31.3326L23.104 31.322L24.0794 33.1961L25.0402 31.3326ZM27.5446 23.9297L25.7093 23.3129L27.239 21.8553L27.5446 23.9297ZM29.4626 25.361L27.9819 24.1136L29.9397 23.3195L29.4626 25.361ZM25.0402 23.2212L23.104 23.2318L24.0794 21.3578L25.0402 23.2212ZM20.6226 23.9293L22.458 23.3126L20.9286 21.855L20.6226 23.9293ZM18.7047 25.3606L20.1854 24.1132L18.2276 23.3192L18.7047 25.3606ZM21.6496 24.8839C22.836 24.1308 24.3821 24.1081 25.6596 24.579C27.209 25.0108 28.3014 26.0527 28.3014 27.2694C28.3014 28.5618 27.069 29.6567 25.3653 30.0329C24.9726 30.1236 24.539 30.1726 24.0644 30.1726C21.7246 30.1726 19.8274 28.8725 19.8274 27.2694C19.8274 27.2475 19.8278 27.2259 19.8285 27.204L19.8289 27.1871C19.8296 27.1667 19.8307 27.1458 19.8322 27.1254L19.8333 27.1115C19.8348 27.091 19.8369 27.0706 19.8391 27.0501L19.8391 27.05L19.8399 27.0442C19.8421 27.0234 19.845 27.0025 19.8479 26.9817L19.8508 26.9627C19.8522 26.9536 19.8537 26.9444 19.8552 26.9353C19.857 26.925 19.8588 26.9146 19.8607 26.9042L19.8615 26.8991L19.8629 26.8925C19.8666 26.8731 19.8706 26.8537 19.8746 26.8347L19.8772 26.8223L19.884 26.7932C19.8866 26.7824 19.8893 26.7716 19.8922 26.7609L19.8958 26.7466C19.9013 26.7258 19.9072 26.7046 19.9134 26.6837C19.9192 26.664 19.9258 26.6431 19.9324 26.6238L19.9386 26.6051C19.9452 26.5857 19.9521 26.5664 19.9594 26.547L19.9642 26.5346C19.9681 26.5239 19.9723 26.5134 19.9766 26.5029L19.9839 26.4845L19.9898 26.4702C19.9955 26.4563 20.0016 26.4423 20.0077 26.4286L20.0128 26.4168L20.0227 26.3949L20.0464 26.3448L20.0556 26.3265C20.0582 26.3215 20.0607 26.3164 20.0633 26.3113C20.0683 26.3014 20.0733 26.2915 20.0786 26.2816L20.0878 26.2644C20.0954 26.2499 20.1036 26.2354 20.1117 26.2212L20.1174 26.211L20.1261 26.196L20.1547 26.1478L20.1642 26.1324L20.1934 26.0867L20.2095 26.0626L20.238 26.0205L20.2574 25.9935L20.2793 25.9631L20.2954 25.9416L20.3309 25.8955L20.3481 25.8739L20.3726 25.844L20.4069 25.803L20.4274 25.7792L20.449 25.7548L20.4515 25.7522L20.4848 25.7156L20.5119 25.6868L20.5323 25.6652L20.5736 25.6235L20.593 25.6045L20.6259 25.5731L20.6629 25.5383L20.6921 25.512L20.7075 25.4981C20.7283 25.4798 20.7491 25.4615 20.7707 25.4433L20.7799 25.4356L20.8113 25.4093L20.8354 25.3895L20.8524 25.3759C20.8651 25.3659 20.8778 25.3559 20.8906 25.346L20.9049 25.335C20.9447 25.3043 20.9857 25.2744 21.0274 25.2451L21.0303 25.2433C21.1458 25.1621 21.2683 25.0853 21.397 25.0137L21.4025 25.0108C21.4335 24.9936 21.4654 24.9764 21.4972 24.9599L21.6496 24.8839ZM26.2557 27.1656C26.3105 25.8681 25.3425 24.7697 24.093 24.7124C22.8434 24.6555 21.7857 25.6608 21.7306 26.9583C21.6758 28.2559 22.6438 29.3542 23.8933 29.4115C25.1429 29.4688 26.2006 28.4632 26.2557 27.1656ZM25.713 27.1409C25.755 26.1545 25.019 25.3196 24.0691 25.276H24.0688C23.304 25.2409 22.6335 25.7302 22.3797 26.4372C22.7125 26.0362 23.2125 25.792 23.7609 25.8171C24.7108 25.8607 25.4468 26.6955 25.4048 27.6819C25.3966 27.8737 25.3596 28.057 25.2984 28.2278C25.5415 27.9347 25.6952 27.5574 25.713 27.1409Z" fill="#2B2A29"/>
</g>
</svg>
