<svg width="40" height="40" viewBox="0 0 40 40" fill="none" xmlns="http://www.w3.org/2000/svg">
<g clip-path="url(#clip0_21_204)">
<path fill-rule="evenodd" clip-rule="evenodd" d="M19.9453 0.00780807C27.6406 -4.42611e-06 27.9922 0.00780807 28.5312 0.148433C28.8438 0.234371 29.2969 0.374996 29.5312 0.460933C29.7656 0.546871 30.2344 0.796871 30.5625 1.01562C30.8984 1.22656 31.3672 1.60937 31.6094 1.85937C31.8516 2.10156 32.1797 2.5 32.3438 2.73437C32.5 2.96875 32.7031 3.30468 32.7891 3.47656C32.875 3.64843 33.0234 4.01562 33.1094 4.29687C33.2031 4.57812 33.3047 4.98437 33.3984 5.58593L34.1016 5.64843C34.4922 5.67968 35.0156 5.75781 35.2734 5.82812C35.5312 5.89843 35.9531 6.03906 36.2109 6.14843C36.4688 6.25 36.9062 6.49218 37.1875 6.67968C37.4688 6.85937 37.9453 7.27343 38.2422 7.58593C38.5469 7.90625 38.9219 8.375 39.0781 8.63281C39.2344 8.89062 39.4531 9.32812 39.5547 9.60937C39.6641 9.89062 39.8047 10.3516 39.875 10.6484C39.9844 11.0937 40 11.8359 40.0078 20.1172L39.75 20.5C39.5859 20.75 39.3672 20.9531 39.1406 21.0703C38.9219 21.1797 38.6562 21.25 38.4375 21.25C38.2188 21.25 37.9531 21.1797 37.7344 21.0703C37.5391 20.9687 37.2812 20.7422 36.9141 20.2187L36.8359 11.1328L36.5781 10.6016C36.4453 10.3125 36.1641 9.90625 35.9531 9.70312C35.75 9.49218 35.4375 9.25 35.25 9.15625C35.0703 9.0625 34.7188 8.92968 34.4688 8.86718C34.2266 8.80468 33.8906 8.75 33.4375 8.75V17.4453C33.4375 24.0625 33.4141 26.2109 33.3359 26.4453C33.2891 26.6172 33.1172 26.8828 32.9688 27.0312C32.7969 27.2109 32.5547 27.3516 32.3047 27.4141C32.0859 27.4766 31.7969 27.5 31.6406 27.4687C31.4922 27.4453 31.2422 27.3594 31.0938 27.2812C30.9453 27.1953 30.7109 26.9844 30.3516 26.4687L30.2734 5.5L29.9844 4.91406C29.8047 4.53906 29.5703 4.21093 29.3203 3.98437C29.1172 3.79687 28.7188 3.53125 27.9297 3.16406H12.0703L11.5625 3.40625C11.2812 3.53906 10.8828 3.80468 10.6719 3.99218C10.4219 4.21875 10.2031 4.53125 9.72656 5.5L9.6875 15.9297C9.64844 26.1719 9.64844 26.375 9.49219 26.6719C9.40625 26.8437 9.22656 27.0625 9.10156 27.1562C8.96875 27.25 8.70312 27.3828 8.5 27.4375C8.1875 27.5234 8.0625 27.5234 7.75781 27.4375C7.54688 27.375 7.29688 27.2656 7.1875 27.1953C7.07812 27.1172 6.90625 26.9219 6.60156 26.4453L6.5625 8.75H6.26562C6.10938 8.75 5.77344 8.80468 5.52344 8.86718C5.28125 8.92968 4.92969 9.0625 4.74219 9.15625C4.5625 9.25 4.25 9.49218 4.03906 9.70312C3.83594 9.90625 3.55469 10.3125 3.16406 11.1328V28.2422L3.40625 28.75C3.53125 29.0312 3.78125 29.4141 3.95312 29.5937C4.11719 29.7812 4.41406 30.0391 4.60938 30.1562C4.80469 30.2812 5.15625 30.4297 5.39062 30.5C5.77344 30.6172 7.24219 30.625 20 30.625C32.7578 30.625 34.2266 30.6172 34.6094 30.5C34.8438 30.4297 35.1953 30.2812 35.3906 30.1562C35.5859 30.0391 35.8828 29.7812 36.0469 29.5937C36.2188 29.4141 36.4531 29.0469 36.5781 28.7891C36.7188 28.4844 36.8125 28.1016 36.8594 27.6953C36.8984 27.3516 36.9922 26.9297 37.0859 26.7578C37.1797 26.5625 37.375 26.3594 37.6172 26.2109C37.9219 26.0234 38.0859 25.9766 38.4375 25.9766C38.7969 25.9766 38.9531 26.0234 39.25 26.2109C39.4844 26.3516 39.7031 26.5781 39.8125 26.7734C39.9531 27.0312 40 27.2266 40 27.6172C40 27.8984 39.9453 28.3594 39.8828 28.6484C39.8281 28.9453 39.7031 29.3906 39.6094 29.6484C39.5234 29.9062 39.3359 30.3125 39.2031 30.5469C39.0703 30.7812 38.7812 31.2031 38.5625 31.4766C38.3438 31.75 37.9219 32.1719 37.6172 32.4062C37.3125 32.6406 36.7891 32.9609 36.4453 33.125C36.1016 33.2891 35.6094 33.4922 35.3516 33.5625C34.9219 33.6953 34.3359 33.7031 21.5625 33.75V36.875L27.5469 36.9141L27.8594 37.1172C28.0234 37.2266 28.2422 37.4375 28.3359 37.5859C28.4297 37.7344 28.5312 38.0078 28.5625 38.2031C28.5938 38.4141 28.5781 38.6797 28.5156 38.8672C28.4609 39.0391 28.3359 39.2812 28.2422 39.4141C28.1484 39.5391 27.9219 39.7266 27.4219 40H12.5781L12.2422 39.8125C12.0625 39.7109 11.8047 39.4844 11.6797 39.2969C11.4766 39.0156 11.4453 38.9062 11.4453 38.4531C11.4453 38.0312 11.4844 37.8672 11.6406 37.625C11.75 37.4531 11.9766 37.2266 12.4531 36.9141L18.4375 36.875V33.75L11.7734 33.7266C5.66406 33.7031 5.07812 33.6953 4.64844 33.5625C4.39062 33.4922 3.89844 33.2891 3.55469 33.125C3.21094 32.9609 2.67188 32.625 2.35156 32.375C2.03125 32.1172 1.57812 31.6641 1.34375 31.3672C1.10938 31.0625 0.789062 30.5391 0.617188 30.1953C0.453125 29.8516 0.25 29.2734 0.15625 28.9062C0.0078125 28.2578 0 28.0156 0 19.7422C0 12.6953 0.015625 11.1641 0.109375 10.7187C0.171875 10.4297 0.3125 9.94531 0.429688 9.64843C0.539062 9.34375 0.765625 8.89062 0.921875 8.63281C1.07812 8.375 1.45312 7.90625 1.75781 7.58593C2.05469 7.27343 2.53125 6.85937 2.8125 6.67968C3.09375 6.49218 3.53125 6.25 3.78906 6.14843C4.04688 6.03906 4.46875 5.89843 4.72656 5.82812C4.98438 5.75781 5.50781 5.67968 6.60156 5.58593L6.66406 5.19531C6.69531 4.97656 6.79687 4.57812 6.89062 4.29687C6.97656 4.01562 7.125 3.64843 7.21094 3.47656C7.29688 3.30468 7.5 2.96093 7.66406 2.71093C7.83594 2.46875 8.17188 2.07031 8.41406 1.82031C8.66406 1.57812 9.11719 1.21875 9.41406 1.02343C9.71094 0.820308 10.2266 0.562496 10.5469 0.445308C10.8672 0.328121 11.3047 0.179683 11.5234 0.124996C11.8359 0.0390581 13.4844 0.0156206 19.9453 0.00780807ZM19.9609 8.44531C24.1875 8.4375 25.8125 8.46093 26.0156 8.52343C26.1641 8.57812 26.3828 8.67968 26.5 8.76562C26.625 8.84375 26.7969 9.05468 26.8906 9.23437C27.0078 9.46093 27.0625 9.71093 27.0625 10C27.0625 10.2891 27.0078 10.5391 26.8906 10.7578C26.7969 10.9453 26.625 11.1562 26.5 11.2422C26.3828 11.3203 26.1484 11.4297 25.9766 11.4766C25.75 11.5469 24.1016 11.5625 13.9453 11.5234L13.6406 11.3281C13.4688 11.2187 13.25 11.0078 13.1484 10.8594C13.0547 10.7109 12.9531 10.4297 12.9219 10.2344C12.8984 10.0391 12.9141 9.73437 12.9609 9.54687C13.0156 9.34375 13.1641 9.10156 13.3594 8.90625C13.5312 8.73437 13.7891 8.5625 13.9219 8.52343C14.0703 8.48437 16.7578 8.44531 19.9609 8.44531ZM19.9609 14.6953C24.1875 14.6875 25.8125 14.7109 26.0156 14.7734C26.1641 14.8281 26.3828 14.9297 26.5078 15.0156C26.625 15.0937 26.7969 15.3047 26.8906 15.4844C27.0078 15.7109 27.0625 15.9609 27.0625 16.25C27.0625 16.5391 27.0078 16.7891 26.8906 17.0078C26.7969 17.1953 26.625 17.4062 26.5078 17.4922C26.3828 17.5703 26.1484 17.6797 25.9766 17.7266C25.75 17.7969 24.1016 17.8125 13.9453 17.7734L13.6406 17.5781C13.4688 17.4687 13.25 17.2578 13.1484 17.1094C13.0547 16.9609 12.9531 16.6797 12.9219 16.4844C12.8984 16.2891 12.9141 15.9844 12.9609 15.7969C13.0156 15.5937 13.1641 15.3516 13.3594 15.1562C13.5312 14.9844 13.7891 14.8125 13.9297 14.7734C14.0703 14.7344 16.7578 14.6953 19.9609 14.6953ZM16.9141 20.9609C19.4766 20.9766 19.6641 20.9844 19.9531 21.1328C20.125 21.2187 20.3438 21.3906 20.4375 21.5234C20.5312 21.6484 20.6641 21.9219 20.7188 22.125C20.8047 22.4375 20.8047 22.5625 20.7188 22.8672C20.6641 23.0781 20.5312 23.3437 20.4375 23.4766C20.3438 23.6016 20.125 23.7812 19.9531 23.8672C19.6641 24.0156 19.4922 24.0234 13.9453 24.0234L13.6406 23.8281C13.4688 23.7187 13.25 23.5078 13.1484 23.3594C13.0547 23.2109 12.9531 22.9297 12.9219 22.7344C12.8984 22.5391 12.9141 22.2344 12.9609 22.0469C13.0156 21.8437 13.1641 21.6016 13.3594 21.4062C13.5312 21.2344 13.7891 21.0625 13.9297 21.0234C14.0625 20.9844 15.4141 20.9531 16.9141 20.9609Z" fill="#2B2A29"/>
</g>
<defs>
<clipPath id="clip0_21_204">
<rect width="40" height="40" fill="white"/>
</clipPath>
</defs>
</svg>
