<svg width="24" height="24" viewBox="0 0 24 24" fill="none" xmlns="http://www.w3.org/2000/svg">
<g clip-path="url(#clip0_83_10037)">
<path d="M0.51209 11.9491C0.511527 13.9813 1.04253 15.9656 2.05221 17.7146L0.415527 23.6905L6.53103 22.087C8.22249 23.0078 10.1177 23.4903 12.0435 23.4904H12.0486C18.4062 23.4904 23.5815 18.317 23.5842 11.9582C23.5855 8.87692 22.3866 5.97948 20.2084 3.79961C18.0306 1.61992 15.1342 0.418887 12.0481 0.41748C5.68972 0.41748 0.514715 5.59061 0.51209 11.9491Z" fill="#FDD947"/>
<path d="M9.09009 9.00008C9.32519 8.33175 9.78924 7.76819 10.4 7.40921C11.0108 7.05024 11.729 6.91902 12.4273 7.03879C13.1255 7.15857 13.7589 7.52161 14.2152 8.06361C14.6714 8.60561 14.9211 9.2916 14.9201 10.0001C14.9201 12.0001 11.9201 13.0001 11.9201 13.0001" stroke="#2B2A29" stroke-width="2" stroke-linecap="round" stroke-linejoin="round"/>
<path d="M12 17H12.01" stroke="#2B2A29" stroke-width="2" stroke-linecap="round" stroke-linejoin="round"/>
</g>
<defs>
<clipPath id="clip0_83_10037">
<rect width="24" height="24" fill="white"/>
</clipPath>
</defs>
</svg>
