<svg width="40" height="40" viewBox="0 0 40 40" fill="none" xmlns="http://www.w3.org/2000/svg">
<path d="M3.33301 11.6668L10.683 4.31683C10.9931 4.00488 11.3619 3.75739 11.7681 3.58863C12.1742 3.41986 12.6098 3.33315 13.0497 3.3335H26.9497C27.3895 3.33315 27.8251 3.41986 28.2313 3.58863C28.6375 3.75739 29.0062 4.00488 29.3163 4.31683L36.6663 11.6668" stroke="#2B2A29" stroke-width="3" stroke-linecap="round" stroke-linejoin="round"/>
<path d="M6.66699 20V33.3333C6.66699 34.2174 7.01818 35.0652 7.6433 35.6904C8.26842 36.3155 9.11627 36.6667 10.0003 36.6667H30.0003C30.8844 36.6667 31.7322 36.3155 32.3573 35.6904C32.9825 35.0652 33.3337 34.2174 33.3337 33.3333V20" stroke="#2B2A29" stroke-width="3" stroke-linecap="round" stroke-linejoin="round"/>
<path d="M25 36.6665V29.9998C25 29.1158 24.6488 28.2679 24.0237 27.6428C23.3986 27.0177 22.5507 26.6665 21.6667 26.6665H18.3333C17.4493 26.6665 16.6014 27.0177 15.9763 27.6428C15.3512 28.2679 15 29.1158 15 29.9998V36.6665" stroke="#2B2A29" stroke-width="3" stroke-linecap="round" stroke-linejoin="round"/>
<path d="M3.33301 11.6665H36.6663" stroke="#2B2A29" stroke-width="3" stroke-linecap="round" stroke-linejoin="round"/>
<path d="M36.6663 11.6665V16.6665C36.6663 17.5506 36.3152 18.3984 35.69 19.0235C35.0649 19.6486 34.2171 19.9998 33.333 19.9998C32.3592 19.9462 31.4292 19.5777 30.683 18.9498C30.4841 18.8061 30.245 18.7288 29.9997 18.7288C29.7543 18.7288 29.5152 18.8061 29.3163 18.9498C28.5701 19.5777 27.6401 19.9462 26.6663 19.9998C25.6926 19.9462 24.7626 19.5777 24.0163 18.9498C23.8175 18.8061 23.5784 18.7288 23.333 18.7288C23.0877 18.7288 22.8485 18.8061 22.6497 18.9498C21.9035 19.5777 20.9734 19.9462 19.9997 19.9998C19.0259 19.9462 18.0959 19.5777 17.3497 18.9498C17.1508 18.8061 16.9117 18.7288 16.6663 18.7288C16.421 18.7288 16.1819 18.8061 15.983 18.9498C15.2368 19.5777 14.3068 19.9462 13.333 19.9998C12.3592 19.9462 11.4292 19.5777 10.683 18.9498C10.4841 18.8061 10.245 18.7288 9.99967 18.7288C9.75432 18.7288 9.51521 18.8061 9.31634 18.9498C8.57012 19.5777 7.64012 19.9462 6.66634 19.9998C5.78229 19.9998 4.93444 19.6486 4.30932 19.0235C3.6842 18.3984 3.33301 17.5506 3.33301 16.6665V11.6665" stroke="#2B2A29" stroke-width="3" stroke-linecap="round" stroke-linejoin="round"/>
</svg>
