<svg width="24" height="24" viewBox="0 0 24 24" fill="none" xmlns="http://www.w3.org/2000/svg">
<g clip-path="url(#clip0_1_1944)">
<path d="M12 0C8.81812 0 5.76375 1.26506 3.51562 3.51469C1.26518 5.76521 0.000623381 8.81734 0 12C0 15.1813 1.26562 18.2357 3.51562 20.4853C5.76375 22.7349 8.81812 24 12 24C15.1819 24 18.2362 22.7349 20.4844 20.4853C22.7344 18.2357 24 15.1813 24 12C24 8.81869 22.7344 5.76431 20.4844 3.51469C18.2362 1.26506 15.1819 0 12 0Z" fill="#FDD947"/>
<path d="M5.37637 12.3431C8.79957 10.7556 11.0817 9.70894 12.2228 9.20328C15.4845 7.75935 16.1615 7.50857 16.6036 7.50007C16.7008 7.49841 16.9173 7.524 17.0585 7.64558C17.1759 7.74812 17.209 7.88679 17.2255 7.98415C17.2401 8.08142 17.2603 8.3031 17.2438 8.47614C17.0677 10.4527 16.3027 15.2491 15.9138 17.463C15.7505 18.3997 15.4258 18.7138 15.1121 18.7444C14.4297 18.8112 13.9123 18.2647 13.2519 17.804C12.2191 17.0827 11.6357 16.6339 10.6322 15.9302C9.47283 15.1169 10.225 14.6698 10.8854 13.9394C11.0578 13.7482 14.0628 10.839 14.1196 10.5751C14.127 10.5421 14.1343 10.4191 14.0646 10.3543C13.9967 10.2892 13.8958 10.3115 13.8225 10.3291C13.7179 10.3541 12.0687 11.5158 8.86928 13.814C8.40148 14.1566 7.9777 14.3236 7.59613 14.3148C7.17786 14.3052 6.37067 14.0624 5.77079 13.855C5.03698 13.6005 4.45178 13.4659 4.50314 13.0337C4.52882 12.8087 4.82051 12.5785 5.37637 12.3431Z" fill="#2B2A29"/>
</g>
<defs>
<clipPath id="clip0_1_1944">
<rect width="24" height="24" fill="white"/>
</clipPath>
</defs>
</svg>
