<svg width="24" height="24" viewBox="0 0 24 24" fill="none" xmlns="http://www.w3.org/2000/svg">
<g clip-path="url(#clip0_1_1941)">
<path d="M0.51209 11.9491C0.511527 13.9813 1.04253 15.9656 2.05221 17.7146L0.415527 23.6905L6.53103 22.087C8.22249 23.0078 10.1177 23.4903 12.0435 23.4904H12.0486C18.4062 23.4904 23.5815 18.317 23.5842 11.9582C23.5855 8.87692 22.3866 5.97948 20.2084 3.79961C18.0306 1.61992 15.1342 0.418887 12.0481 0.41748C5.68972 0.41748 0.514715 5.59061 0.51209 11.9491Z" fill="#FDD947"/>
<path d="M9.06358 6.95156C8.8399 6.45441 8.60449 6.44438 8.39177 6.43566C8.21758 6.42816 8.01846 6.42872 7.81952 6.42872C7.6204 6.42872 7.29687 6.50363 7.0234 6.80222C6.74965 7.1011 5.97827 7.82335 5.97827 9.29231C5.97827 10.7614 7.04824 12.181 7.1974 12.3804C7.34674 12.5795 9.26299 15.6905 12.2979 16.8873C14.8201 17.8819 15.3334 17.6841 15.8808 17.6342C16.4283 17.5845 17.6474 16.9121 17.8961 16.2149C18.1451 15.5178 18.1451 14.9202 18.0704 14.7953C17.9958 14.6709 17.7967 14.5962 17.4981 14.447C17.1994 14.2976 15.7315 13.5753 15.4578 13.4756C15.1841 13.3761 14.985 13.3264 14.7859 13.6253C14.5868 13.9238 14.015 14.5962 13.8407 14.7953C13.6666 14.9949 13.4923 15.0198 13.1938 14.8704C12.8951 14.7206 11.9335 14.4057 10.7926 13.3886C9.90499 12.5972 9.30574 11.6198 9.13155 11.3209C8.95737 11.0224 9.1129 10.8606 9.26262 10.7118C9.39677 10.578 9.5613 10.3631 9.71074 10.1888C9.85962 10.0145 9.9093 9.89006 10.0089 9.69094C10.1085 9.49163 10.0586 9.31725 9.98412 9.16791C9.9093 9.01856 9.32908 7.54191 9.06358 6.95156Z" fill="#2B2A29"/>
</g>
<defs>
<clipPath id="clip0_1_1941">
<rect width="24" height="24" fill="white"/>
</clipPath>
</defs>
</svg>
