<svg width="40" height="40" viewBox="0 0 40 40" fill="none" xmlns="http://www.w3.org/2000/svg">
<path d="M5 9.16675C5 7.78675 6.12 6.66675 7.5 6.66675C8.88 6.66675 10 7.78675 10 9.16675C10 10.5467 8.88 11.6667 7.5 11.6667C6.12 11.6667 5 10.5467 5 9.16675ZM14.1667 11.6667C15.5467 11.6667 16.6667 10.5467 16.6667 9.16675C16.6667 7.78675 15.5467 6.66675 14.1667 6.66675C12.7867 6.66675 11.6667 7.78675 11.6667 9.16675C11.6667 10.5467 12.7867 11.6667 14.1667 11.6667ZM40 10.0001V30.0001C40 34.5951 36.2617 38.3334 31.6667 38.3334H8.33333C3.73833 38.3334 0 34.5951 0 30.0001V10.0001C0 5.40508 3.73833 1.66675 8.33333 1.66675H31.6667C36.2617 1.66675 40 5.40508 40 10.0001ZM3.33333 10.0001V13.3334H36.6667V10.0001C36.6667 7.24341 34.4233 5.00008 31.6667 5.00008H8.33333C5.57667 5.00008 3.33333 7.24341 3.33333 10.0001ZM36.6667 30.0001V16.6667H3.33333V30.0001C3.33333 32.7568 5.57667 35.0001 8.33333 35.0001H31.6667C34.4233 35.0001 36.6667 32.7568 36.6667 30.0001ZM17.0117 22.0117C17.6633 21.3601 17.6633 20.3067 17.0117 19.6551C16.36 19.0034 15.3067 19.0034 14.655 19.6551L11.02 23.2901C9.56667 24.7434 9.56667 27.1067 11.0517 28.5901L14.6867 32.0417C15.3517 32.6768 16.4083 32.6501 17.0417 31.9817C17.6767 31.3151 17.6483 30.2601 16.9817 29.6267L13.3783 26.2034C13.225 26.0501 13.225 25.8001 13.3783 25.6467L17.0133 22.0117H17.0117ZM25.345 19.6551C24.6933 19.0034 23.64 19.0034 22.9883 19.6551C22.3367 20.3067 22.3367 21.3601 22.9883 22.0117L26.6233 25.6467C26.7767 25.8001 26.7767 26.0501 26.6417 26.1851L23.0433 29.6734C22.3833 30.3134 22.3667 31.3701 23.0083 32.0301C23.65 32.6917 24.705 32.7068 25.365 32.0651L28.9817 28.5584C30.435 27.1051 30.435 24.7417 28.9817 23.2884L25.3467 19.6534L25.345 19.6551Z" fill="#2B2A29"/>
</svg>
