<svg width="40" height="40" viewBox="0 0 40 40" fill="none" xmlns="http://www.w3.org/2000/svg">
<g clip-path="url(#clip0_8_40)">
<path d="M39.9999 10V30.385C39.9999 31.6217 39.5449 32.81 38.7132 33.735L33.0615 40H28.5732L36.2382 31.5033C36.5149 31.195 36.6682 30.7983 36.6682 30.385V10C36.6682 9.08167 35.9199 8.33333 35.0015 8.33333C34.0832 8.33333 33.3349 9.08167 33.3349 10V23.3333H33.3265C33.3265 24.4733 32.9399 25.615 32.1665 26.5367L27.8699 31.01L25.4682 28.7L29.6899 24.31C29.9065 24.0483 30.0099 23.695 30.0032 23.3333C29.9732 22.98 29.8349 22.5033 29.5799 22.2183C28.9682 21.5367 27.9165 21.4783 27.2365 22.09L22.3899 26.55C22.9999 27.395 23.3365 28.42 23.3365 29.4767V40H20.0032V29.4767C20.0032 29.0117 19.8065 28.565 19.4649 28.2517L12.7549 22.0767C12.0915 21.4817 11.0382 21.5367 10.4265 22.22C9.87988 22.8317 9.86488 23.7667 10.3916 24.395L14.6749 28.8467L12.2732 31.1567L7.91322 26.6217C7.09988 25.6567 6.69655 24.49 6.68822 23.335H6.66988V10C6.66988 9.08167 5.92155 8.33333 5.00322 8.33333C4.08488 8.33333 3.33655 9.08167 3.33655 10V30.385C3.33655 30.7983 3.48988 31.195 3.76655 31.5033L11.4316 40H6.94322L1.29155 33.735C0.459883 32.81 0.00488281 31.6217 0.00488281 30.385V10C0.00488281 7.24333 2.24822 5 5.00488 5C7.76155 5 10.0049 7.24333 10.0049 10V18.6183C11.6682 18.035 13.5932 18.35 14.9982 19.6083L20.0049 24.215L24.9965 19.6217C26.4132 18.3533 28.3399 18.035 30.0049 18.6183V10C30.0049 7.24333 32.2482 5 35.0049 5C37.7615 5 40.0049 7.24333 40.0049 10H39.9999ZM11.6349 5.26667C11.6349 2.36167 13.8782 0 16.6349 0C17.9382 0 19.0965 0.45 19.9682 1.21167C20.8399 0.45 21.9982 0 23.3015 0C26.0582 0 28.3015 2.36167 28.3015 5.26667C28.3015 9.685 22.1515 14.18 20.9182 15.035L19.9682 15.695L19.0182 15.035C17.7849 14.1783 11.6349 9.685 11.6349 5.26667ZM14.9682 5.26667C14.9682 7.02 17.6415 9.78333 19.9682 11.595C22.2932 9.78 24.9682 7.01167 24.9682 5.26667C24.9682 4.2 24.2199 3.33333 23.3015 3.33333C22.4715 3.33333 21.6349 3.84833 21.6349 5H18.3015C18.3015 3.84833 17.4649 3.33333 16.6349 3.33333C15.7165 3.33333 14.9682 4.20167 14.9682 5.26667Z" fill="#2B2A29"/>
</g>
<defs>
<clipPath id="clip0_8_40">
<rect width="40" height="40" fill="white"/>
</clipPath>
</defs>
</svg>
