<svg width="62" height="62" viewBox="0 0 62 62" fill="none" xmlns="http://www.w3.org/2000/svg">
<mask id="mask0_250_453" style="mask-type:alpha" maskUnits="userSpaceOnUse" x="0" y="0" width="62" height="62">
<path d="M61.6401 31.36C61.6401 34.6079 61.395 37.8557 60.8435 40.981C59.1889 51.3373 50.9774 59.5488 40.6211 61.2034C37.4958 61.7549 34.2479 62 31.0001 62C27.7523 62 24.5044 61.7549 21.3791 61.2034C11.0228 59.5488 2.81131 51.3373 1.15675 40.981C0.605227 37.8557 0.360107 34.6079 0.360107 31.36C0.360107 28.1122 0.605227 24.8644 1.15675 21.7391C2.81131 11.3828 11.0228 3.17123 21.3791 1.51667C24.5044 0.965152 27.7523 0.720032 31.0001 0.720032C34.2479 0.720032 37.4958 0.965152 40.6211 1.51667C50.9774 3.17123 59.1889 11.3828 60.8435 21.7391C61.395 24.8644 61.6401 28.1122 61.6401 31.36Z" fill="#FDD947"/>
</mask>
<g mask="url(#mask0_250_453)">
<path d="M62.0002 31C62.0002 34.2478 61.7551 37.4957 61.2036 40.6209C59.549 50.9773 51.3375 59.1888 40.9812 60.8433C37.8559 61.3949 34.6081 61.64 31.3602 61.64C28.1124 61.64 24.8645 61.3949 21.7393 60.8433C11.3829 59.1888 3.17141 50.9773 1.51685 40.6209C0.965335 37.4957 0.720215 34.2478 0.720215 31C0.720215 27.7521 0.965335 24.5043 1.51685 21.379C3.17141 11.0227 11.3829 2.81119 21.7393 1.15663C24.8645 0.605105 28.1124 0.359985 31.3602 0.359985C34.6081 0.359985 37.8559 0.605105 40.9812 1.15663C51.3375 2.81119 59.549 11.0227 61.2036 21.379C61.7551 24.5043 62.0002 27.7521 62.0002 31Z" fill="#FDD947"/>
<path fill-rule="evenodd" clip-rule="evenodd" d="M19.2625 37.3712C24.248 37.3712 22.7193 46.7695 19.2625 51.9356C15.8057 57.1018 12.7181 61.9463 12.7181 61.9463L31.5657 70.051L51.9109 61.9463C51.9109 61.9463 49.5707 56.7144 45.8954 52.4337C42.2201 48.1531 41.8365 45.3297 41.8365 45.3297C47.3406 45.9364 52.1938 44.4535 54.0912 43.1755C53.851 41.6024 51.0311 39.44 48.1571 37.2361C45.0289 34.8374 41.8365 32.3894 41.8365 30.5984C41.8365 27.707 44.1387 26.7349 46.3177 25.8147C48.3281 24.9657 50.2336 24.161 50.1298 21.9342C49.9753 18.6113 45.5441 18.0151 44.0913 20.2756C43.7147 20.8616 43.3981 21.4544 43.0506 22.1054L43.0497 22.1069L43.042 22.1214C42.9325 22.3265 42.8198 22.5374 42.7012 22.7557C39.1338 29.3223 32.7885 26.2082 38.0657 19.0877C40.8383 15.3462 36.5233 12.3505 33.8531 14.2215C32.2314 15.3575 32.4249 17.2743 32.6438 19.4441V19.4449C32.7236 20.2353 32.8068 21.0591 32.8068 21.891C32.8068 24.9041 28.266 25.1872 27.2967 22.2414C27.0132 21.3797 26.9741 20.3896 26.9359 19.4187C26.8425 17.0505 26.7537 14.7963 23.1322 14.7963C20.8837 14.7963 20.2296 17.3721 20.2296 17.3761C20.2296 19.0844 21.4536 20.1937 22.6702 21.2963C23.8721 22.3857 25.0669 23.4686 25.0669 25.116C25.0669 28.4198 20.0408 27.0106 18.2852 24.4806C13.142 17.0703 10.8774 23.3808 10.8774 24.1489C10.8774 26.9609 13.298 27.3815 15.7203 27.8024C16.8796 28.0038 18.0394 28.2054 18.9344 28.6691C20.6771 29.5726 21.1971 30.1011 21.1971 31.5664C21.1971 34.6404 18.2203 33.8794 15.0915 33.0795C11.6263 32.1937 7.97485 31.2602 7.97485 35.4361C7.97485 39.2155 12.0543 38.3846 15.1431 37.7555L15.1438 37.7553C16.1382 37.5529 17.03 37.3712 17.6498 37.3712H19.2625ZM33.7595 41.3443L31.4014 41.3314L32.5894 43.6138L33.7595 41.3443ZM36.8095 32.3283L34.5743 31.5772L36.4373 29.802L36.8095 32.3283ZM39.1453 34.0715L37.342 32.5523L39.7264 31.5852L39.1453 34.0715ZM33.7595 31.4655L31.4014 31.4784L32.5894 29.196L33.7595 31.4655ZM28.3795 32.3279L30.6147 31.5768L28.7522 29.8015L28.3795 32.3279ZM26.0437 34.0711L27.847 32.5519L25.4626 31.5848L26.0437 34.0711ZM29.6302 33.4905C31.0751 32.5732 32.9581 32.5457 34.5138 33.1191C36.4008 33.645 37.7312 34.9139 37.7312 36.3958C37.7312 37.9697 36.2302 39.3033 34.1553 39.7614C33.6771 39.8719 33.149 39.9315 32.5711 39.9315C29.7215 39.9315 27.4111 38.3482 27.4111 36.3958C27.4111 36.3814 27.4112 36.3673 27.4114 36.3531C27.4117 36.3408 27.412 36.3285 27.4124 36.3161L27.4128 36.2956C27.4138 36.2707 27.415 36.2453 27.4169 36.2203L27.4182 36.2034C27.42 36.1785 27.4226 36.1535 27.4253 36.1286L27.4262 36.1215C27.4289 36.0961 27.4324 36.0707 27.436 36.0454L27.4396 36.0222C27.4413 36.0108 27.4431 35.9994 27.445 35.988C27.4471 35.9757 27.4493 35.9634 27.4516 35.951L27.4525 35.9447L27.4542 35.9367L27.4601 35.9068L27.4685 35.8664L27.4716 35.8512C27.4774 35.8263 27.4832 35.8014 27.4899 35.7764L27.4943 35.759C27.501 35.7337 27.5081 35.7079 27.5157 35.6825C27.5205 35.6662 27.5258 35.6494 27.5311 35.6328L27.5388 35.6094L27.5464 35.5867C27.5544 35.5631 27.5629 35.5396 27.5718 35.5159L27.5776 35.5008C27.5817 35.4896 27.5861 35.4786 27.5906 35.4676L27.5928 35.4619L27.6016 35.4398L27.6088 35.4224C27.6177 35.4006 27.6274 35.3788 27.6368 35.3574L27.6488 35.3307L27.6778 35.2697L27.6889 35.2474L27.6981 35.2292C27.7043 35.217 27.7104 35.2049 27.7169 35.1927L27.7281 35.1718C27.7375 35.1538 27.7477 35.1359 27.7577 35.1183L27.7642 35.1068L27.7748 35.0885L27.8096 35.0297L27.8212 35.011L27.8568 34.9554L27.8763 34.926L27.9111 34.8748L27.9347 34.8418L27.9614 34.8049L27.981 34.7786L28.0242 34.7225L28.0451 34.6962L28.075 34.6597L28.1168 34.6098L28.1417 34.5809L28.168 34.5511L28.1711 34.5479L28.2117 34.5034L28.2446 34.4683L28.2695 34.442L28.3198 34.3912L28.3434 34.3681L28.3835 34.3298L28.4285 34.2875L28.4641 34.2554L28.4828 34.2385L28.4867 34.2351C28.5021 34.2215 28.5177 34.2079 28.5334 34.1944C28.5421 34.1868 28.5509 34.1793 28.5598 34.1717L28.5709 34.1624L28.6093 34.1303L28.6386 34.1063L28.6738 34.0783L28.69 34.0656L28.7059 34.0533L28.7233 34.0399C28.7717 34.0025 28.8217 33.966 28.8724 33.9304L28.876 33.9282C29.0167 33.8293 29.1658 33.7358 29.3225 33.6485L29.3292 33.645C29.3671 33.6241 29.4058 33.6031 29.4446 33.5831L29.6302 33.4905ZM35.2398 36.2695C35.3066 34.6892 34.1276 33.3515 32.6059 33.2817C31.0841 33.2124 29.796 34.4367 29.7288 36.017C29.662 37.5973 30.8409 38.9349 32.3627 39.0047C33.8845 39.0745 35.1727 37.8498 35.2398 36.2695ZM34.5789 36.2393C34.63 35.038 33.7336 34.0212 32.5768 33.9681C31.645 33.9254 30.8284 34.5213 30.5193 35.3823C30.9246 34.894 31.5336 34.5965 32.2015 34.6271C33.3583 34.6802 34.2546 35.697 34.2035 36.8983C34.1935 37.1319 34.1484 37.3551 34.0739 37.5631C34.3699 37.2061 34.5572 36.7466 34.5789 36.2393Z" fill="#2B2A29"/>
</g>
</svg>
