<svg width="32" height="32" viewBox="0 0 32 32" fill="none" xmlns="http://www.w3.org/2000/svg">
<path d="M25 12.8C25 19.4 16 26 16 26C16 26 7 19.4 7 12.8C7 10.4661 7.94821 8.22778 9.63604 6.57746C11.3239 4.92714 13.6131 4 16 4C18.3869 4 20.6761 4.92714 22.364 6.57746C24.0518 8.22778 25 10.4661 25 12.8Z" stroke="#2B2A29" stroke-width="2" stroke-linecap="round" stroke-linejoin="round"/>
<path d="M16 15C17.6569 15 19 13.6569 19 12C19 10.3431 17.6569 9 16 9C14.3431 9 13 10.3431 13 12C13 13.6569 14.3431 15 16 15Z" stroke="#2B2A29" stroke-width="2" stroke-linecap="round" stroke-linejoin="round"/>
</svg>
