<svg width="40" height="40" viewBox="0 0 40 40" fill="none" xmlns="http://www.w3.org/2000/svg">
<path d="M5 18.3333L35 10V30L5 23.3333V18.3333Z" stroke="#2B2A29" stroke-width="3" stroke-linecap="round" stroke-linejoin="round"/>
<path d="M19.3335 27.9999C19.1584 28.6346 18.86 29.2287 18.4554 29.7481C18.0507 30.2675 17.5477 30.7021 16.9751 31.0271C16.4024 31.3521 15.7714 31.5611 15.118 31.6422C14.4646 31.7234 13.8016 31.675 13.1669 31.4999C12.5321 31.3248 11.9381 31.0264 11.4187 30.6218C10.8993 30.2171 10.4647 29.7141 10.1397 29.1415C9.8147 28.5688 9.60567 27.9378 9.52454 27.2844C9.44341 26.631 9.49177 25.968 9.66687 25.3333" stroke="#2B2A29" stroke-width="3" stroke-linecap="round" stroke-linejoin="round"/>
</svg>
