<svg width="20" height="16" viewBox="0 0 20 16" fill="none" xmlns="http://www.w3.org/2000/svg">
<path d="M9.625 4.25L8.9375 4.84375C8.96875 5.0625 8.96875 5.28125 8.96875 5.5C8.96875 5.71875 8.96875 5.9375 8.9375 6.15625L9.625 6.78125C9.84375 6.96875 9.9375 7.28125 9.8125 7.5625C9.75 7.71875 9.65625 7.90625 9.5625 8.0625L9.46875 8.21875C9.375 8.375 9.28125 8.53125 9.1875 8.6875C9 8.90625 8.6875 9 8.40625 8.90625L7.53125 8.59375C7.1875 8.875 6.8125 9.09375 6.375 9.25L6.1875 10.1562C6.125 10.4688 5.90625 10.6875 5.625 10.7188C5.40625 10.75 5.1875 10.75 4.96875 10.75C4.78125 10.75 4.5625 10.75 4.34375 10.7188C4.0625 10.6875 3.8125 10.4688 3.78125 10.1562L3.5625 9.25C3.15625 9.09375 2.78125 8.875 2.4375 8.59375L1.5625 8.90625C1.28125 9 0.96875 8.90625 0.78125 8.6875C0.6875 8.53125 0.5625 8.375 0.46875 8.21875L0.375 8.0625C0.3125 7.90625 0.21875 7.71875 0.15625 7.5625C0.03125 7.28125 0.125 6.96875 0.34375 6.78125L1.03125 6.15625C1 5.96875 1 5.75 1 5.5C1 5.28125 1 5.0625 1.03125 4.875L0.34375 4.25C0.125 4.03125 0.03125 3.75 0.15625 3.46875C0.21875 3.28125 0.3125 3.125 0.375 2.96875L0.46875 2.8125C0.59375 2.65625 0.6875 2.5 0.78125 2.34375C0.96875 2.125 1.28125 2.03125 1.5625 2.125L2.4375 2.40625C2.78125 2.15625 3.15625 1.9375 3.59375 1.78125L3.78125 0.84375C3.84375 0.5625 4.0625 0.34375 4.34375 0.3125C4.5625 0.28125 4.78125 0.25 5 0.25C5.1875 0.25 5.40625 0.28125 5.625 0.3125C5.90625 0.34375 6.15625 0.5625 6.21875 0.875L6.40625 1.78125C6.8125 1.90625 7.1875 2.15625 7.53125 2.40625L8.40625 2.125C8.6875 2.03125 9 2.125 9.1875 2.34375C9.28125 2.5 9.40625 2.65625 9.5 2.8125L9.59375 2.96875C9.65625 3.125 9.75 3.28125 9.8125 3.46875C9.9375 3.75 9.84375 4.03125 9.625 4.25ZM6.5 5.5C6.5 4.6875 5.8125 4 5 4C4.15625 4 3.5 4.6875 3.5 5.5C3.5 6.34375 4.15625 7 5 7C5.8125 7 6.5 6.34375 6.5 5.5ZM15.75 15.6562L15.1562 14.9688C14.9375 15 14.7188 15 14.5 15C14.2812 15 14.0625 15 13.8438 14.9688L13.2188 15.6562C13.0312 15.875 12.7188 15.9688 12.4375 15.8438C12.2812 15.7812 12.0938 15.6875 11.9375 15.5938L11.7812 15.5C11.625 15.4062 11.4688 15.3125 11.3125 15.1875C11.0938 15.0312 11 14.7188 11.0938 14.4375L11.4062 13.5625C11.125 13.2188 10.9062 12.8438 10.75 12.4062L9.84375 12.2188C9.53125 12.1562 9.3125 11.9375 9.28125 11.6562C9.25 11.4375 9.25 11.2188 9.25 11C9.25 10.7812 9.25 10.5938 9.28125 10.375C9.3125 10.0938 9.53125 9.84375 9.84375 9.78125L10.75 9.59375C10.9062 9.1875 11.125 8.8125 11.4062 8.46875L11.0938 7.59375C11 7.3125 11.0938 7 11.3125 6.8125C11.4688 6.71875 11.625 6.59375 11.7812 6.5L11.9375 6.40625C12.0938 6.34375 12.2812 6.25 12.4375 6.1875C12.7188 6.0625 13.0312 6.15625 13.2188 6.375L13.8438 7.0625C14.0312 7.03125 14.25 7.03125 14.5 7.03125C14.7188 7.03125 14.9375 7.03125 15.125 7.0625L15.75 6.375C15.9688 6.15625 16.2812 6.0625 16.5312 6.1875C16.7188 6.25 16.875 6.34375 17.0312 6.40625L17.1875 6.5C17.3438 6.625 17.5 6.71875 17.6562 6.8125C17.875 7 17.9688 7.3125 17.875 7.59375L17.5938 8.46875C17.8438 8.8125 18.0625 9.1875 18.2188 9.59375L19.1562 9.8125C19.4375 9.875 19.6562 10.0938 19.6875 10.375C19.7188 10.5938 19.75 10.8125 19.75 11.0312C19.75 11.2188 19.7188 11.4375 19.6875 11.6562C19.6562 11.9375 19.4375 12.1875 19.1562 12.2188L18.2188 12.4375C18.0938 12.8438 17.8438 13.2188 17.5938 13.5625L17.875 14.4375C17.9688 14.7188 17.875 15.0312 17.6562 15.2188C17.5 15.3125 17.3438 15.4062 17.1875 15.5L17.0312 15.625C16.875 15.6875 16.7188 15.7812 16.5312 15.8438C16.25 15.9688 15.9688 15.875 15.75 15.6562ZM14.5 12.5C15.3125 12.5 16 11.8438 16 11C16 10.1875 15.3125 9.5 14.5 9.5C13.6562 9.5 13 10.1875 13 11C13 11.8438 13.6562 12.5 14.5 12.5Z" fill="#2B2A29"/>
</svg>
