<svg width="32" height="32" viewBox="0 0 32 32" fill="none" xmlns="http://www.w3.org/2000/svg">
<path d="M26.1073 20.9259V23.9367C26.1084 24.2162 26.0511 24.4928 25.9389 24.7489C25.8267 25.005 25.6621 25.2349 25.4557 25.4239C25.2494 25.6128 25.0057 25.7567 24.7404 25.8462C24.4751 25.9358 24.194 25.969 23.9151 25.9439C20.8207 25.6083 17.8483 24.553 15.2368 22.8628C12.8071 21.322 10.7472 19.2661 9.20325 16.8412C7.50377 14.223 6.44615 11.2421 6.11607 8.13998C6.09094 7.86245 6.12399 7.58274 6.21311 7.31865C6.30223 7.05457 6.44548 6.8119 6.63372 6.60609C6.82196 6.40029 7.05108 6.23585 7.30649 6.12326C7.56189 6.01067 7.83799 5.95239 8.11721 5.95212H11.134C11.622 5.94733 12.0951 6.1198 12.4652 6.4374C12.8352 6.75499 13.0769 7.19603 13.1452 7.67832C13.2725 8.64184 13.5086 9.5879 13.8491 10.4984C13.9844 10.8577 14.0137 11.248 13.9335 11.6234C13.8533 11.9987 13.6669 12.3432 13.3966 12.616L12.1195 13.8906C13.551 16.4032 15.6355 18.4835 18.153 19.9122L19.4301 18.6377C19.7036 18.3678 20.0487 18.1819 20.4248 18.1018C20.8009 18.0218 21.192 18.051 21.5519 18.186C22.4643 18.5258 23.4122 18.7615 24.3777 18.8886C24.8662 18.9573 25.3123 19.2029 25.6312 19.5785C25.9501 19.9542 26.1195 20.4337 26.1073 20.9259Z" stroke="#2B2A29" stroke-width="2" stroke-linecap="round" stroke-linejoin="round"/>
<path d="M18.1079 5.95203C20.1462 6.16842 22.0501 7.07928 23.5048 8.53397C24.9595 9.98866 25.8778 11.9 26.1079 13.952" stroke="#2B2A29" stroke-width="2" stroke-linecap="round" stroke-linejoin="round"/>
<path d="M18.1079 9.95203C19.1039 10.146 20.0178 10.6311 20.7311 11.3443C21.4444 12.0576 21.9241 12.9662 22.1079 13.952" stroke="#2B2A29" stroke-width="2" stroke-linecap="round" stroke-linejoin="round"/>
</svg>
