<svg width="32" height="32" viewBox="0 0 32 32" fill="none" xmlns="http://www.w3.org/2000/svg">
<path d="M19.0432 27.6216C19.0888 27.7353 19.168 27.8322 19.2703 27.8995C19.3726 27.9667 19.493 28.0011 19.6153 27.998C19.7377 27.9948 19.8562 27.9543 19.9549 27.8819C20.0536 27.8095 20.1277 27.7086 20.1675 27.5928L27.9666 4.79547C28.005 4.68916 28.0123 4.57411 27.9877 4.46378C27.9631 4.35345 27.9076 4.25241 27.8276 4.17248C27.7477 4.09255 27.6467 4.03704 27.5363 4.01243C27.426 3.98783 27.311 3.99516 27.2046 4.03356L4.40727 11.8327C4.29148 11.8724 4.19061 11.9466 4.11819 12.0452C4.04578 12.1439 4.00528 12.2624 4.00215 12.3848C3.99902 12.5072 4.03339 12.6276 4.10066 12.7298C4.16793 12.8321 4.26487 12.9114 4.37848 12.9569L13.8934 16.7725C14.1942 16.8929 14.4675 17.073 14.6968 17.3019C14.9261 17.5308 15.1067 17.8038 15.2276 18.1043L19.0432 27.6216Z" stroke="#2B2A29" stroke-width="2" stroke-linecap="round" stroke-linejoin="round"/>
<path d="M18.0019 13.9982L15.002 16.9982" stroke="#2B2A29" stroke-width="2" stroke-linecap="round" stroke-linejoin="round"/>
</svg>
